<svg width="17" height="17" viewBox="0 0 17 17" fill="none" xmlns="http://www.w3.org/2000/svg">
<path d="M11.3333 13.8125V12.0417C11.3333 11.9384 11.3001 11.8535 11.2337 11.7871C11.1673 11.7207 11.0825 11.6875 10.9792 11.6875H9.91667V6.02083C9.91667 5.91753 9.88346 5.83268 9.81706 5.76628C9.75065 5.69987 9.6658 5.66667 9.5625 5.66667H6.02083C5.91753 5.66667 5.83268 5.69987 5.76628 5.76628C5.69987 5.83268 5.66667 5.91753 5.66667 6.02083V7.79167C5.66667 7.89497 5.69987 7.97982 5.76628 8.04622C5.83268 8.11263 5.91753 8.14583 6.02083 8.14583H7.08333V11.6875H6.02083C5.91753 11.6875 5.83268 11.7207 5.76628 11.7871C5.69987 11.8535 5.66667 11.9384 5.66667 12.0417V13.8125C5.66667 13.9158 5.69987 14.0007 5.76628 14.0671C5.83268 14.1335 5.91753 14.1667 6.02083 14.1667H10.9792C11.0825 14.1667 11.1673 14.1335 11.2337 14.0671C11.3001 14.0007 11.3333 13.9158 11.3333 13.8125ZM9.91667 3.89583V2.125C9.91667 2.0217 9.88346 1.93685 9.81706 1.87044C9.75065 1.80404 9.6658 1.77083 9.5625 1.77083H7.4375C7.3342 1.77083 7.24935 1.80404 7.18294 1.87044C7.11654 1.93685 7.08333 2.0217 7.08333 2.125V3.89583C7.08333 3.99913 7.11654 4.08398 7.18294 4.15039C7.24935 4.2168 7.3342 4.25 7.4375 4.25H9.5625C9.6658 4.25 9.75065 4.2168 9.81706 4.15039C9.88346 4.08398 9.91667 3.99913 9.91667 3.89583ZM17 8.5C17 10.0421 16.62 11.4643 15.86 12.7666C15.1 14.0689 14.0689 15.1 12.7666 15.86C11.4643 16.62 10.0421 17 8.5 17C6.9579 17 5.5357 16.62 4.2334 15.86C2.9311 15.1 1.89996 14.0689 1.13997 12.7666C0.379991 11.4643 0 10.0421 0 8.5C0 6.9579 0.379991 5.5357 1.13997 4.2334C1.89996 2.9311 2.9311 1.89996 4.2334 1.13997C5.5357 0.379991 6.9579 0 8.5 0C10.0421 0 11.4643 0.379991 12.7666 1.13997C14.0689 1.89996 15.1 2.9311 15.86 4.2334C16.62 5.5357 17 6.9579 17 8.5Z" fill="#FDFDFD"/>
</svg>
