<svg width="17" height="18" viewBox="0 0 17 18" fill="none" xmlns="http://www.w3.org/2000/svg">
<path d="M9.15385 16.2368L15.6923 12.4615V5.58173L9.15385 8.10216V16.2368ZM8.5 6.87981L15.631 4.13221L8.5 1.38462L1.36899 4.13221L8.5 6.87981ZM17 4.15385V12.4615C17 12.7139 16.9387 12.9483 16.8161 13.1647C16.6935 13.381 16.5266 13.5505 16.3155 13.6731L9.1232 17.8269C8.93249 17.9423 8.72476 18 8.5 18C8.27524 18 8.06751 17.9423 7.8768 17.8269L0.684495 13.6731C0.473357 13.5505 0.30649 13.381 0.183894 13.1647C0.0612981 12.9483 0 12.7139 0 12.4615V4.15385C0 3.86538 0.0783253 3.60216 0.234976 3.36418C0.391627 3.1262 0.599359 2.95673 0.858173 2.85577L8.05048 0.0865385C8.20032 0.0288462 8.35016 0 8.5 0C8.64984 0 8.79968 0.0288462 8.94952 0.0865385L16.1418 2.85577C16.4006 2.95673 16.6084 3.1262 16.765 3.36418C16.9217 3.60216 17 3.86538 17 4.15385Z" fill="#FDFDFD"/>
</svg>
