<svg width="25" height="16" viewBox="0 0 25 16" fill="none" xmlns="http://www.w3.org/2000/svg">
<path d="M24.7053 2.84444L22.1309 0.29372C21.9345 0.097907 21.7018 4.08851e-07 21.433 4.08851e-07C21.1642 4.08851e-07 20.9316 0.097907 20.7351 0.29372L12.5 8.50242L4.26489 0.29372C4.06845 0.097907 3.83581 4.08851e-07 3.567 4.08851e-07C3.29818 4.08851e-07 3.06555 0.097907 2.86911 0.29372L0.294665 2.84444C0.0982217 3.04026 0 3.27472 0 3.54783C0 3.82093 0.0982217 4.05539 0.294665 4.25121L11.8021 15.7063C11.9986 15.9021 12.2312 16 12.5 16C12.7688 16 13.0014 15.9021 13.1979 15.7063L24.7053 4.25121C24.9018 4.05539 25 3.82093 25 3.54783C25 3.27472 24.9018 3.04026 24.7053 2.84444Z" fill="#DE1C1F"/>
</svg>
