<svg width="17" height="14" viewBox="0 0 17 14" fill="none" xmlns="http://www.w3.org/2000/svg">
<path d="M14.5736 8.06391V13.3016C14.5736 13.4908 14.5068 13.6545 14.3733 13.7927C14.2397 13.9309 14.0815 14 13.8988 14H9.84969V9.80982H7.15031V14H3.10124C2.91847 14 2.7603 13.9309 2.62674 13.7927C2.49318 13.6545 2.4264 13.4908 2.4264 13.3016V8.06391C2.4264 8.05664 2.42815 8.04573 2.43167 8.03118C2.43518 8.01663 2.43694 8.00572 2.43694 7.99844L8.5 2.82619L14.5631 7.99844C14.5701 8.01299 14.5736 8.03481 14.5736 8.06391ZM16.925 7.31099L16.2713 8.11847C16.215 8.18394 16.1412 8.22395 16.0498 8.2385H16.0182C15.9268 8.2385 15.853 8.21304 15.7968 8.16212L8.5 1.86594L1.20324 8.16212C1.11888 8.22032 1.03453 8.24578 0.950172 8.2385C0.858787 8.22395 0.784976 8.18394 0.728739 8.11847L0.0749828 7.31099C0.0187457 7.23824 -0.00585803 7.15277 0.00117161 7.05456C0.00820124 6.95635 0.0468642 6.87815 0.117161 6.81995L7.69862 0.28371C7.92357 0.09457 8.1907 0 8.5 0C8.8093 0 9.07643 0.09457 9.30138 0.28371L11.8742 2.50974V0.381917C11.8742 0.280073 11.9059 0.196415 11.9691 0.130943C12.0324 0.0654715 12.1132 0.0327358 12.2116 0.0327358H14.2362C14.3346 0.0327358 14.4154 0.0654715 14.4787 0.130943C14.542 0.196415 14.5736 0.280073 14.5736 0.381917V4.83398L16.8828 6.81995C16.9531 6.87815 16.9918 6.95635 16.9988 7.05456C17.0059 7.15277 16.9813 7.23824 16.925 7.31099Z" fill="#FDFDFD"/>
</svg>
