<svg width="17" height="14" viewBox="0 0 17 14" fill="none" xmlns="http://www.w3.org/2000/svg">
<path d="M11.3223 7.20238H14.8197C14.8123 7.18192 14.8031 7.15293 14.792 7.11542C14.7809 7.07791 14.7717 7.05233 14.7643 7.03869L12.418 1.96429H4.58203L2.23568 7.03869C2.2283 7.05915 2.21908 7.08814 2.20801 7.12565C2.19694 7.16316 2.18772 7.18874 2.18034 7.20238H5.67773L6.72917 9.16667H10.2708L11.3223 7.20238ZM17 7.5093V12.4405C17 12.6178 16.9299 12.7713 16.7897 12.9009C16.6495 13.0304 16.4835 13.0952 16.2917 13.0952H0.708333C0.516493 13.0952 0.350477 13.0304 0.210286 12.9009C0.0700955 12.7713 0 12.6178 0 12.4405V7.5093C0 7.08643 0.0922309 6.66698 0.276693 6.25093L2.91081 0.603609C2.98459 0.433098 3.11925 0.289869 3.31478 0.173921C3.51031 0.0579737 3.70399 0 3.89583 0H13.1042C13.296 0 13.4897 0.0579737 13.6852 0.173921C13.8808 0.289869 14.0154 0.433098 14.0892 0.603609L16.7233 6.25093C16.9078 6.66698 17 7.08643 17 7.5093Z" fill="#FDFDFD"/>
</svg>
