<svg width="156" height="29" viewBox="0 0 156 29" fill="none" xmlns="http://www.w3.org/2000/svg">
<path d="M9.32812 6.85356V26.971C9.32812 27.2568 9.26302 27.4998 9.13281 27.6999C9.0026 27.9 8.8125 28 8.5625 28C8.38542 28 8.21354 27.9543 8.04688 27.8628L0.78125 23.8668C0.5625 23.7524 0.377604 23.5609 0.226562 23.2922C0.0755208 23.0235 0 22.7577 0 22.4947V2.94327C0 2.7146 0.0520833 2.52023 0.15625 2.36016C0.260417 2.20009 0.411458 2.12005 0.609375 2.12005C0.755208 2.12005 0.984375 2.2058 1.29688 2.37731L9.28125 6.76781C9.3125 6.80211 9.32812 6.83069 9.32812 6.85356ZM10.3281 8.58575L18.6719 23.438L10.3281 18.876V8.58575ZM28 8.89446V26.971C28 27.2568 27.9271 27.4883 27.7812 27.6656C27.6354 27.8428 27.4375 27.9314 27.1875 27.9314C26.9375 27.9314 26.6927 27.8571 26.4531 27.7084L19.5625 23.9354L28 8.89446ZM27.9531 6.83641C27.9531 6.87071 26.6172 9.26891 23.9453 14.031C21.2734 18.7931 19.7083 21.58 19.25 22.3918L13.1562 11.5185L18.2188 2.48021C18.3958 2.16007 18.6667 2 19.0312 2C19.1771 2 19.3125 2.0343 19.4375 2.1029L27.8906 6.73351C27.9323 6.75638 27.9531 6.79068 27.9531 6.83641Z" fill="#8878F0"/>
<path d="M39.47 23V7.88H41.7485L46.9775 18.59L52.2065 7.88H54.485V23H52.1225V13.3085L47.4815 23H46.4735L41.843 13.3085V23H39.47ZM62.5903 23.315C61.4423 23.315 60.4343 23.0665 59.5663 22.5695C58.6983 22.0725 58.0193 21.383 57.5293 20.501C57.0463 19.619 56.8048 18.604 56.8048 17.456C56.8048 16.217 57.0428 15.1425 57.5188 14.2325C57.9948 13.3155 58.6563 12.605 59.5033 12.101C60.3503 11.597 61.3303 11.345 62.4433 11.345C63.6193 11.345 64.6168 11.6215 65.4358 12.1745C66.2618 12.7205 66.8743 13.494 67.2733 14.495C67.6723 15.496 67.8228 16.6755 67.7248 18.0335H65.2153V17.1095C65.2083 15.8775 64.9913 14.978 64.5643 14.411C64.1373 13.844 63.4653 13.5605 62.5483 13.5605C61.5123 13.5605 60.7423 13.8825 60.2383 14.5265C59.7343 15.1635 59.4823 16.098 59.4823 17.33C59.4823 18.478 59.7343 19.367 60.2383 19.997C60.7423 20.627 61.4773 20.942 62.4433 20.942C63.0663 20.942 63.6018 20.8055 64.0498 20.5325C64.5048 20.2525 64.8548 19.85 65.0998 19.325L67.5988 20.081C67.1648 21.103 66.4928 21.8975 65.5828 22.4645C64.6798 23.0315 63.6823 23.315 62.5903 23.315ZM58.6843 18.0335V16.1225H66.4858V18.0335H58.6843ZM74.6142 23.315C73.5712 23.315 72.6612 23.0525 71.8842 22.5275C71.1072 22.0025 70.5052 21.2885 70.0782 20.3855C69.6512 19.4825 69.4377 18.464 69.4377 17.33C69.4377 16.182 69.6512 15.16 70.0782 14.264C70.5122 13.361 71.1247 12.6505 71.9157 12.1325C72.7067 11.6075 73.6377 11.345 74.7087 11.345C75.7867 11.345 76.6897 11.6075 77.4177 12.1325C78.1527 12.6505 78.7092 13.361 79.0872 14.264C79.4652 15.167 79.6542 16.189 79.6542 17.33C79.6542 18.457 79.4652 19.4755 79.0872 20.3855C78.7092 21.2885 78.1457 22.0025 77.3967 22.5275C76.6477 23.0525 75.7202 23.315 74.6142 23.315ZM75.0027 21.047C75.6817 21.047 76.2277 20.893 76.6407 20.585C77.0607 20.27 77.3652 19.8325 77.5542 19.2725C77.7502 18.7125 77.8482 18.065 77.8482 17.33C77.8482 16.588 77.7502 15.9405 77.5542 15.3875C77.3652 14.8275 77.0677 14.3935 76.6617 14.0855C76.2557 13.7705 75.7307 13.613 75.0867 13.613C74.4077 13.613 73.8477 13.781 73.4067 14.117C72.9657 14.446 72.6402 14.894 72.4302 15.461C72.2202 16.021 72.1152 16.644 72.1152 17.33C72.1152 18.023 72.2167 18.653 72.4197 19.22C72.6297 19.78 72.9482 20.2245 73.3752 20.5535C73.8022 20.8825 74.3447 21.047 75.0027 21.047ZM77.8482 23V15.041H77.5332V7.88H80.0847V23H77.8482ZM83.2386 9.938V7.6175H85.7691V9.938H83.2386ZM83.2386 23V11.66H85.7691V23H83.2386ZM93.8388 23.315C92.6698 23.315 91.6723 23.056 90.8463 22.538C90.0203 22.013 89.3868 21.299 88.9458 20.396C88.5118 19.493 88.2913 18.471 88.2843 17.33C88.2913 16.168 88.5188 15.139 88.9668 14.243C89.4218 13.34 90.0658 12.633 90.8988 12.122C91.7318 11.604 92.7223 11.345 93.8703 11.345C95.1583 11.345 96.2468 11.6705 97.1358 12.3215C98.0318 12.9655 98.6163 13.8475 98.8893 14.9675L96.3693 15.65C96.1733 15.041 95.8478 14.5685 95.3928 14.2325C94.9378 13.8895 94.4198 13.718 93.8388 13.718C93.1808 13.718 92.6383 13.8755 92.2113 14.1905C91.7843 14.4985 91.4693 14.9255 91.2663 15.4715C91.0633 16.0175 90.9618 16.637 90.9618 17.33C90.9618 18.408 91.2033 19.2795 91.6863 19.9445C92.1693 20.6095 92.8868 20.942 93.8388 20.942C94.5108 20.942 95.0393 20.788 95.4243 20.48C95.8163 20.172 96.1103 19.7275 96.3063 19.1465L98.8893 19.724C98.5393 20.879 97.9268 21.768 97.0518 22.391C96.1768 23.007 95.1058 23.315 93.8388 23.315ZM103.98 23.315C103.161 23.315 102.468 23.161 101.901 22.853C101.334 22.538 100.903 22.1215 100.609 21.6035C100.322 21.0855 100.179 20.515 100.179 19.892C100.179 19.346 100.27 18.856 100.452 18.422C100.634 17.981 100.914 17.603 101.292 17.288C101.67 16.966 102.16 16.7035 102.762 16.5005C103.217 16.3535 103.749 16.2205 104.358 16.1015C104.974 15.9825 105.639 15.874 106.353 15.776C107.074 15.671 107.826 15.559 108.61 15.44L107.707 15.9545C107.714 15.1705 107.539 14.593 107.182 14.222C106.825 13.851 106.223 13.6655 105.376 13.6655C104.865 13.6655 104.372 13.7845 103.896 14.0225C103.42 14.2605 103.087 14.67 102.898 15.251L100.588 14.5265C100.868 13.5675 101.4 12.7975 102.184 12.2165C102.975 11.6355 104.039 11.345 105.376 11.345C106.384 11.345 107.27 11.5095 108.033 11.8385C108.803 12.1675 109.373 12.7065 109.744 13.4555C109.947 13.8545 110.07 14.264 110.112 14.684C110.154 15.097 110.175 15.5485 110.175 16.0385V23H107.959V20.543L108.327 20.942C107.816 21.761 107.217 22.363 106.531 22.748C105.852 23.126 105.002 23.315 103.98 23.315ZM104.484 21.299C105.058 21.299 105.548 21.1975 105.954 20.9945C106.36 20.7915 106.682 20.543 106.92 20.249C107.165 19.955 107.329 19.6785 107.413 19.4195C107.546 19.0975 107.62 18.73 107.634 18.317C107.655 17.897 107.665 17.5575 107.665 17.2985L108.442 17.5295C107.679 17.6485 107.025 17.7535 106.479 17.8445C105.933 17.9355 105.464 18.023 105.072 18.107C104.68 18.184 104.333 18.2715 104.032 18.3695C103.738 18.4745 103.49 18.597 103.287 18.737C103.084 18.877 102.926 19.038 102.814 19.22C102.709 19.402 102.657 19.6155 102.657 19.8605C102.657 20.1405 102.727 20.389 102.867 20.606C103.007 20.816 103.21 20.984 103.476 21.11C103.749 21.236 104.085 21.299 104.484 21.299ZM113.118 23V7.565H115.649V23H113.118ZM118.794 23V7.88H128.559V10.253H121.325V13.9805H127.299V16.3535H121.325V20.627H128.559V23H118.794ZM135.625 23.315C134.582 23.315 133.672 23.0525 132.895 22.5275C132.118 22.0025 131.516 21.2885 131.089 20.3855C130.662 19.4825 130.448 18.464 130.448 17.33C130.448 16.182 130.662 15.16 131.089 14.264C131.523 13.361 132.135 12.6505 132.926 12.1325C133.717 11.6075 134.648 11.345 135.719 11.345C136.797 11.345 137.7 11.6075 138.428 12.1325C139.163 12.6505 139.72 13.361 140.098 14.264C140.476 15.167 140.665 16.189 140.665 17.33C140.665 18.457 140.476 19.4755 140.098 20.3855C139.72 21.2885 139.156 22.0025 138.407 22.5275C137.658 23.0525 136.731 23.315 135.625 23.315ZM136.013 21.047C136.692 21.047 137.238 20.893 137.651 20.585C138.071 20.27 138.376 19.8325 138.565 19.2725C138.761 18.7125 138.859 18.065 138.859 17.33C138.859 16.588 138.761 15.9405 138.565 15.3875C138.376 14.8275 138.078 14.3935 137.672 14.0855C137.266 13.7705 136.741 13.613 136.097 13.613C135.418 13.613 134.858 13.781 134.417 14.117C133.976 14.446 133.651 14.894 133.441 15.461C133.231 16.021 133.126 16.644 133.126 17.33C133.126 18.023 133.227 18.653 133.43 19.22C133.64 19.78 133.959 20.2245 134.386 20.5535C134.813 20.8825 135.355 21.047 136.013 21.047ZM138.544 28.04V19.619H138.859V11.66H141.095V28.04H138.544ZM148.292 23.3255C147.452 23.3255 146.759 23.1855 146.213 22.9055C145.667 22.6255 145.233 22.2685 144.911 21.8345C144.589 21.4005 144.351 20.9385 144.197 20.4485C144.043 19.9585 143.941 19.4965 143.892 19.0625C143.85 18.6215 143.829 18.2645 143.829 17.9915V11.66H146.391V17.12C146.391 17.47 146.416 17.8655 146.465 18.3065C146.514 18.7405 146.626 19.1605 146.801 19.5665C146.983 19.9655 147.249 20.2945 147.599 20.5535C147.956 20.8125 148.435 20.942 149.037 20.942C149.359 20.942 149.678 20.8895 149.993 20.7845C150.308 20.6795 150.591 20.501 150.843 20.249C151.102 19.99 151.309 19.6365 151.463 19.1885C151.617 18.7405 151.694 18.1735 151.694 17.4875L153.195 18.128C153.195 19.094 153.006 19.969 152.628 20.753C152.257 21.537 151.708 22.1635 150.98 22.6325C150.252 23.0945 149.356 23.3255 148.292 23.3255ZM151.998 23V19.4825H151.694V11.66H154.235V23H151.998Z" fill="#FDFDFD"/>
</svg>
