<svg width="23" height="15" viewBox="0 0 23 15" fill="none" xmlns="http://www.w3.org/2000/svg">
<path d="M22.7289 12.3333L20.3604 14.7246C20.1797 14.9082 19.9657 15 19.7184 15C19.4711 15 19.257 14.9082 19.0763 14.7246L11.5 7.02899L3.9237 14.7246C3.74297 14.9082 3.52895 15 3.28164 15C3.03433 15 2.82031 14.9082 2.63958 14.7246L0.271092 12.3333C0.0903639 12.1498 0 11.93 0 11.6739C0 11.4179 0.0903639 11.1981 0.271092 11.0145L10.8579 0.275362C11.0387 0.0917874 11.2527 0 11.5 0C11.7473 0 11.9613 0.0917874 12.1421 0.275362L22.7289 11.0145C22.9096 11.1981 23 11.4179 23 11.6739C23 11.93 22.9096 12.1498 22.7289 12.3333Z" fill="#DE1C1F"/>
</svg>
