<svg width="17" height="18" viewBox="0 0 17 18" fill="none" xmlns="http://www.w3.org/2000/svg">
<path d="M8.66346 17.0357C8.66346 16.9286 8.60897 16.875 8.5 16.875C8.09816 16.875 7.7525 16.7327 7.46304 16.4481C7.17358 16.1635 7.02885 15.8237 7.02885 15.4286C7.02885 15.3214 6.97436 15.2679 6.86538 15.2679C6.75641 15.2679 6.70192 15.3214 6.70192 15.4286C6.70192 15.9174 6.8773 16.3343 7.22807 16.6791C7.57883 17.024 8.0028 17.1964 8.5 17.1964C8.60897 17.1964 8.66346 17.1429 8.66346 17.0357ZM1.85938 14.1429H15.1406C13.3289 12.1339 12.4231 9.34821 12.4231 5.78571C12.4231 5.4442 12.3413 5.09263 12.1779 4.73103C12.0144 4.36942 11.7794 4.02455 11.473 3.69643C11.1665 3.3683 10.7527 3.09877 10.2317 2.88783C9.71064 2.6769 9.13341 2.57143 8.5 2.57143C7.86659 2.57143 7.28936 2.6769 6.76833 2.88783C6.2473 3.09877 5.83353 3.3683 5.52704 3.69643C5.22055 4.02455 4.98558 4.36942 4.82212 4.73103C4.65865 5.09263 4.57692 5.4442 4.57692 5.78571C4.57692 9.34821 3.67107 12.1339 1.85938 14.1429ZM17 14.1429C17 14.4911 16.8706 14.7924 16.6118 15.0469C16.353 15.3013 16.0465 15.4286 15.6923 15.4286H11.1154C11.1154 16.1384 10.86 16.7444 10.3492 17.2467C9.83834 17.7489 9.22196 18 8.5 18C7.77804 18 7.16166 17.7489 6.65084 17.2467C6.14002 16.7444 5.88462 16.1384 5.88462 15.4286H1.30769C0.953526 15.4286 0.647035 15.3013 0.388221 15.0469C0.129407 14.7924 0 14.4911 0 14.1429C0.340545 13.8616 0.650441 13.567 0.929688 13.2589C1.20893 12.9509 1.4984 12.5508 1.79808 12.0586C2.09776 11.5664 2.35146 11.0357 2.55919 10.4665C2.76693 9.89732 2.9372 9.20759 3.07001 8.39732C3.20282 7.58705 3.26923 6.71652 3.26923 5.78571C3.26923 4.76786 3.66767 3.82199 4.46454 2.9481C5.26142 2.07422 6.30689 1.54353 7.60096 1.35603C7.54647 1.22879 7.51923 1.09821 7.51923 0.964286C7.51923 0.696429 7.61458 0.46875 7.80529 0.28125C7.99599 0.09375 8.22756 0 8.5 0C8.77244 0 9.00401 0.09375 9.19471 0.28125C9.38542 0.46875 9.48077 0.696429 9.48077 0.964286C9.48077 1.09821 9.45353 1.22879 9.39904 1.35603C10.6931 1.54353 11.7386 2.07422 12.5355 2.9481C13.3323 3.82199 13.7308 4.76786 13.7308 5.78571C13.7308 6.71652 13.7972 7.58705 13.93 8.39732C14.0628 9.20759 14.2331 9.89732 14.4408 10.4665C14.6485 11.0357 14.9022 11.5664 15.2019 12.0586C15.5016 12.5508 15.7911 12.9509 16.0703 13.2589C16.3496 13.567 16.6595 13.8616 17 14.1429Z" fill="#EDEDED"/>
</svg>
