<svg width="16" height="21" viewBox="0 0 16 21" fill="none" xmlns="http://www.w3.org/2000/svg">
<path d="M10.6667 10.5C10.6667 9.74089 10.4062 9.09277 9.88542 8.55566C9.36458 8.01855 8.73611 7.75 8 7.75C7.26389 7.75 6.63542 8.01855 6.11458 8.55566C5.59375 9.09277 5.33333 9.74089 5.33333 10.5C5.33333 11.2591 5.59375 11.9072 6.11458 12.4443C6.63542 12.9814 7.26389 13.25 8 13.25C8.73611 13.25 9.36458 12.9814 9.88542 12.4443C10.4062 11.9072 10.6667 11.2591 10.6667 10.5ZM16 9.3291V11.7139C16 11.7998 15.9722 11.8822 15.9167 11.9609C15.8611 12.0397 15.7917 12.0863 15.7083 12.1006L13.7812 12.4014C13.6493 12.7881 13.5139 13.1139 13.375 13.3789C13.6181 13.737 13.9896 14.2311 14.4896 14.8613C14.559 14.9473 14.5938 15.0368 14.5938 15.1299C14.5938 15.223 14.5625 15.3053 14.5 15.377C14.3125 15.6419 13.9688 16.0286 13.4688 16.5371C12.9688 17.0456 12.6424 17.2998 12.4896 17.2998C12.4062 17.2998 12.316 17.2676 12.2188 17.2031L10.7812 16.043C10.4757 16.2077 10.1597 16.3438 9.83333 16.4512C9.72222 17.4251 9.62153 18.0911 9.53125 18.4492C9.48264 18.6497 9.35764 18.75 9.15625 18.75H6.84375C6.74653 18.75 6.66146 18.7196 6.58854 18.6587C6.51562 18.5978 6.47569 18.5208 6.46875 18.4277L6.17708 16.4512C5.83681 16.3366 5.52431 16.2041 5.23958 16.0537L3.77083 17.2031C3.70139 17.2676 3.61458 17.2998 3.51042 17.2998C3.41319 17.2998 3.32639 17.2604 3.25 17.1816C2.375 16.3652 1.80208 15.7637 1.53125 15.377C1.48264 15.3053 1.45833 15.223 1.45833 15.1299C1.45833 15.0439 1.48611 14.9616 1.54167 14.8828C1.64583 14.7324 1.82292 14.4943 2.07292 14.1685C2.32292 13.8426 2.51042 13.5902 2.63542 13.4111C2.44792 13.0531 2.30556 12.6986 2.20833 12.3477L0.302083 12.0576C0.211806 12.0433 0.138889 11.9985 0.0833333 11.9233C0.0277778 11.8481 0 11.764 0 11.6709V9.28613C0 9.2002 0.0277778 9.11784 0.0833333 9.03906C0.138889 8.96029 0.204861 8.91374 0.28125 8.89941L2.21875 8.59863C2.31597 8.26921 2.45139 7.93978 2.625 7.61035C2.34722 7.20215 1.97569 6.70801 1.51042 6.12793C1.44097 6.04199 1.40625 5.95605 1.40625 5.87012C1.40625 5.7985 1.4375 5.71615 1.5 5.62305C1.68056 5.36523 2.02257 4.98031 2.52604 4.46826C3.02951 3.95622 3.35764 3.7002 3.51042 3.7002C3.60069 3.7002 3.69097 3.736 3.78125 3.80762L5.21875 4.95703C5.52431 4.79232 5.84028 4.65625 6.16667 4.54883C6.27778 3.57487 6.37847 2.90885 6.46875 2.55078C6.51736 2.35026 6.64236 2.25 6.84375 2.25H9.15625C9.25347 2.25 9.33854 2.28044 9.41146 2.34131C9.48438 2.40218 9.52431 2.47917 9.53125 2.57227L9.82292 4.54883C10.1632 4.66341 10.4757 4.7959 10.7604 4.94629L12.2396 3.79688C12.3021 3.73242 12.3854 3.7002 12.4896 3.7002C12.5799 3.7002 12.6667 3.736 12.75 3.80762C13.6458 4.65983 14.2188 5.26855 14.4688 5.63379C14.5174 5.69108 14.5417 5.76986 14.5417 5.87012C14.5417 5.95605 14.5139 6.03841 14.4583 6.11719C14.3542 6.26758 14.1771 6.5057 13.9271 6.83154C13.6771 7.15739 13.4896 7.40983 13.3646 7.58887C13.5451 7.94694 13.6875 8.29785 13.7917 8.6416L15.6979 8.94238C15.7882 8.95671 15.8611 9.00146 15.9167 9.07666C15.9722 9.15186 16 9.236 16 9.3291Z" fill="#FDFDFD"/>
</svg>
