<svg width="12" height="12" viewBox="0 0 12 12" fill="none" xmlns="http://www.w3.org/2000/svg">
<path d="M12 10.9689C12 11.0766 11.9599 11.1718 11.8798 11.2547L11.2786 11.8758C11.1984 11.9586 11.1062 12 11.002 12C10.8978 12 10.8056 11.9586 10.7255 11.8758L6 6.99379L1.27455 11.8758C1.19439 11.9586 1.1022 12 0.997996 12C0.893788 12 0.801603 11.9586 0.721443 11.8758L0.12024 11.2547C0.0400802 11.1718 0 11.0766 0 10.9689C0 10.8613 0.0400802 10.766 0.12024 10.6832L5.72345 4.89441C5.80361 4.81159 5.89579 4.77019 6 4.77019C6.10421 4.77019 6.19639 4.81159 6.27655 4.89441L11.8798 10.6832C11.9599 10.766 12 10.8613 12 10.9689ZM12 6.19876C12 6.30642 11.9599 6.40166 11.8798 6.48447L11.2786 7.10559C11.1984 7.18841 11.1062 7.22981 11.002 7.22981C10.8978 7.22981 10.8056 7.18841 10.7255 7.10559L6 2.2236L1.27455 7.10559C1.19439 7.18841 1.1022 7.22981 0.997996 7.22981C0.893788 7.22981 0.801603 7.18841 0.721443 7.10559L0.12024 6.48447C0.0400802 6.40166 0 6.30642 0 6.19876C0 6.0911 0.0400802 5.99586 0.12024 5.91304L5.72345 0.124224C5.80361 0.0414079 5.89579 0 6 0C6.10421 0 6.19639 0.0414079 6.27655 0.124224L11.8798 5.91304C11.9599 5.99586 12 6.0911 12 6.19876Z" fill="#46EA8D"/>
</svg>
