<svg width="12" height="12" viewBox="0 0 12 12" fill="none" xmlns="http://www.w3.org/2000/svg">
<path d="M12 1.03106C12 0.923395 11.9599 0.828157 11.8798 0.745341L11.2786 0.124223C11.1984 0.0414076 11.1062 -2.23517e-07 11.002 -2.23517e-07C10.8978 -2.23517e-07 10.8056 0.0414076 10.7255 0.124223L6 5.00621L1.27455 0.124223C1.19439 0.0414076 1.1022 -2.23517e-07 0.997996 -2.23517e-07C0.893788 -2.23517e-07 0.801603 0.0414076 0.721443 0.124223L0.12024 0.745341C0.0400802 0.828157 0 0.923395 0 1.03106C0 1.13872 0.0400802 1.23395 0.12024 1.31677L5.72345 7.10559C5.80361 7.18841 5.89579 7.22981 6 7.22981C6.10421 7.22981 6.19639 7.18841 6.27655 7.10559L11.8798 1.31677C11.9599 1.23395 12 1.13872 12 1.03106ZM12 5.80124C12 5.69358 11.9599 5.59834 11.8798 5.51553L11.2786 4.89441C11.1984 4.81159 11.1062 4.77019 11.002 4.77019C10.8978 4.77019 10.8056 4.81159 10.7255 4.89441L6 9.7764L1.27455 4.89441C1.19439 4.81159 1.1022 4.77019 0.997996 4.77019C0.893788 4.77019 0.801603 4.81159 0.721443 4.89441L0.12024 5.51553C0.0400802 5.59834 0 5.69358 0 5.80124C0 5.9089 0.0400802 6.00414 0.12024 6.08696L5.72345 11.8758C5.80361 11.9586 5.89579 12 6 12C6.10421 12 6.19639 11.9586 6.27655 11.8758L11.8798 6.08696C11.9599 6.00414 12 5.9089 12 5.80124Z" fill="#DE1C1F"/>
</svg>
