<svg width="28" height="26" viewBox="0 0 28 26" fill="none" xmlns="http://www.w3.org/2000/svg">
<path d="M9.32812 4.85356V24.971C9.32812 25.2568 9.26302 25.4998 9.13281 25.6999C9.0026 25.9 8.8125 26 8.5625 26C8.38542 26 8.21354 25.9543 8.04688 25.8628L0.78125 21.8668C0.5625 21.7524 0.377604 21.5609 0.226562 21.2922C0.0755208 21.0235 0 20.7577 0 20.4947V0.943272C0 0.7146 0.0520833 0.520229 0.15625 0.360158C0.260417 0.200088 0.411458 0.120053 0.609375 0.120053C0.755208 0.120053 0.984375 0.205805 1.29688 0.377309L9.28125 4.76781C9.3125 4.80211 9.32812 4.83069 9.32812 4.85356ZM10.3281 6.58575L18.6719 21.438L10.3281 16.876V6.58575ZM28 6.89446V24.971C28 25.2568 27.9271 25.4883 27.7812 25.6656C27.6354 25.8428 27.4375 25.9314 27.1875 25.9314C26.9375 25.9314 26.6927 25.8571 26.4531 25.7084L19.5625 21.9354L28 6.89446ZM27.9531 4.83641C27.9531 4.87071 26.6172 7.26891 23.9453 12.031C21.2734 16.7931 19.7083 19.58 19.25 20.3918L13.1562 9.51847L18.2188 0.480211C18.3958 0.16007 18.6667 0 19.0312 0C19.1771 0 19.3125 0.0343008 19.4375 0.102902L27.8906 4.73351C27.9323 4.75638 27.9531 4.79068 27.9531 4.83641Z" fill="#ECECEC"/>
</svg>
